<?xml version="1.0" encoding="utf-8"?>
<svg version="1.1" id="Layer_1" xmlns="http://www.w3.org/2000/svg" xmlns:xlink="http://www.w3.org/1999/xlink" x="0px" y="0px"
	 viewBox="400 0 560 560" enable-background="new 400 0 560 560" xml:space="preserve">
<rect x="400" fill="#F7DF1E" width="560" height="560"/>
<path d="M705,310.6c9,0.3,20.6,9.8,27.4,18c6.9,8.2,10.9,23.7,13.7,33.5c2.8,9.8,10,11.7,15,12.3c5,0.6,10.3-17.7,11.2-28.4
	c0.9-10.7,5-37.2,4.7-47.3s2.2-30,1.6-39.1c-0.6-9.2,4.1-37.6,4.4-45.5s6.9-13.3,12.5-12.9c5.6,0.3,8.7,5.7,10,12.3
	c1.2,6.6,0.9,28.4,2.8,35s0.3,17.7,0.6,22.4s0,31.6,2.2,33.1c2.2,1.6,4.4-19.6,5.6-29.7c1.2-10.1,1.9-19.3,2.8-34.7s3.4-19.6,5-33.8
	c1.6-14.2,5.9-17.4,13.4-20.2c7.5-2.8,11.8,2.8,13.1,10.4c1.2,7.6-2.2,25.6-1.6,34.7c0.7,10.4-1.5,31-1.8,43s-1.6,31.8-1,37.5
	s3.4-8.5,4.7-19.9c1.2-11.4,1.6-25.9,2.2-37.9s-0.2-43.7,4.1-46.7c7.5-5.4,10.9-0.9,15.9,2.2s4.7,17.4,4.4,22.7
	c-0.3,5.4,0.3,19.6,0.6,30.3s0.3,26.8,0,45.1c-0.3,18.3,3.1,31.2,2.2,27.1c-0.9-4.1,1.8-21.6,2.8-25.6c1-4-0.4-20.2-0.6-35.7
	c-0.2-15.2,4.4-21.1,8.7-21.8c4.4-0.6,12.8,0,14,10.4c1.2,10.4,3.1,32.4,3.4,37.7c0.3,5.4-0.3,23.2-0.3,29.2c0,6-1.2,16.1,0.3,30.3
	c1.6,14.2,0.3,35-3.4,54S892.9,451.1,886,470s-3.7,36.9-1.2,46.1c2.5,9,6.3,17.5,16.2,43.9H800.5c-0.2-3.5-0.4-7-1.1-9.8
	c-2.5-10.1-14-53.7-19.6-64.7c-5.6-11-21.8-18.9-25.6-24.6s-15.9-24.9-21.5-32.8s-8.4-13.9-10.9-22.4c-2.5-8.5-6.5-17.4-11.8-26.5
	c-5.3-9.2-3.7-19.3-5.6-27.8c-1.9-8.5-7.5-19.6-9.3-26.5S695.9,310.3,705,310.6z"/>
</svg>
